<svg width="48" height="48" viewBox="0 0 48 48" fill="none" xmlns="http://www.w3.org/2000/svg">
<rect width="48" height="48" fill="white"/>
<g clip-path="url(#clip0_1050_2542)">
<path d="M40.7836 40.9711C50.0531 31.5984 50.0531 16.4021 40.7836 7.0294C31.5141 -2.34334 16.4853 -2.34334 7.2158 7.0294C-2.0537 16.4021 -2.0537 31.5984 7.2158 40.9711C16.4853 50.3438 31.5141 50.3438 40.7836 40.9711Z" fill="#3C5B9A"/>
<path fill-rule="evenodd" clip-rule="evenodd" d="M20.2799 31.2431C20.2799 28.9964 20.2712 26.7509 20.2875 24.5055C20.29 24.1275 20.1846 24.0082 19.8107 24.0235C19.1182 24.0514 18.4243 24.0209 17.7318 24.0361C17.4508 24.0438 17.3479 23.9651 17.3504 23.6644C17.3642 22.2626 17.3629 20.8608 17.3516 19.459C17.3491 19.1901 17.4294 19.1013 17.6992 19.1064C18.408 19.1229 19.1182 19.0861 19.8258 19.1216C20.236 19.1419 20.3201 18.9947 20.3126 18.6103C20.2875 17.5435 20.2875 16.4753 20.3113 15.4084C20.3389 14.1056 20.6852 12.889 21.453 11.8297C22.4241 10.4888 23.8054 9.87477 25.3976 9.80373C27.0336 9.73015 28.6734 9.77075 30.3119 9.75299C30.5403 9.75045 30.608 9.83291 30.608 10.0575C30.6005 11.4745 30.5992 12.8928 30.6093 14.3098C30.6118 14.5622 30.5302 14.6396 30.2856 14.6346C29.4977 14.6219 28.7098 14.6282 27.9231 14.6308C26.8743 14.6346 26.2469 15.1801 26.1817 16.2292C26.129 17.0703 26.1679 17.9164 26.1478 18.7613C26.1403 19.062 26.3172 19.0417 26.5142 19.0417C27.7111 19.0404 28.9093 19.0531 30.1062 19.0328C30.4575 19.0264 30.5729 19.1089 30.5327 19.4819C30.3822 20.89 30.253 22.3007 30.1338 23.7127C30.1062 24.0311 29.9631 24.092 29.6796 24.0869C28.7349 24.0717 27.7901 24.0767 26.8441 24.0831C26.1654 24.0869 26.2319 23.9829 26.2319 24.6831C26.2281 29.0788 26.2231 33.4758 26.2419 37.8715C26.2444 38.3358 26.1265 38.4512 25.6723 38.4424C24.0501 38.4119 22.4266 38.4106 20.8044 38.4436C20.3477 38.4525 20.2724 38.2965 20.2762 37.8842C20.2887 35.6717 20.2799 33.458 20.2799 31.2431Z" fill="#FEFEFE"/>
</g>
<defs>
<clipPath id="clip0_1050_2542">
<rect width="47.4725" height="48" fill="white" transform="translate(0.263672)"/>
</clipPath>
</defs>
</svg>
