<svg width="48" height="48" viewBox="0 0 48 48" fill="none" xmlns="http://www.w3.org/2000/svg">
<rect width="48" height="48" fill="white"/>
<path d="M48 38.1413C48 43.5875 43.5874 48 38.1411 48H9.86042C4.41493 48 0 43.5875 0 38.1413V9.86026C0 4.41642 4.41493 0 9.86042 0H38.1411C43.5874 0 48 4.41642 48 9.86026V38.1413Z" fill="#2867B2"/>
<path d="M7.19281 18.172H14.3974V41.3488H7.19281V18.172ZM10.7963 6.65125C13.0984 6.65125 14.9702 8.52455 14.9702 10.8306C14.9702 13.1358 13.0984 15.0036 10.7963 15.0036C8.48709 15.0036 6.62158 13.1358 6.62158 10.8306C6.62158 8.52455 8.48709 6.65125 10.7963 6.65125Z" fill="white"/>
<path d="M18.9148 18.172H25.8251V21.3427H25.9237C26.8847 19.5187 29.2345 17.6 32.7386 17.6C40.034 17.6 41.3807 22.3983 41.3807 28.6371V41.3488H34.18V30.0785C34.18 27.3906 34.1339 23.932 30.4357 23.932C26.6883 23.932 26.1155 26.8632 26.1155 29.886V41.3496H18.9148V18.172Z" fill="white"/>
</svg>