<svg width="48" height="48" viewBox="0 0 48 48" fill="none" xmlns="http://www.w3.org/2000/svg">
<path d="M47.855 14.1052C47.7369 11.5522 47.3289 9.80305 46.7376 8.27679C46.1193 6.6977 45.3043 5.35585 43.9756 4.02649C42.647 2.69714 41.3059 1.86821 39.7276 1.26308C38.2022 0.671403 36.4531 0.263182 33.9024 0.145038C31.3382 0.025934 30.5232 0 24.0134 0C17.4902 0 16.6752 0.025934 14.1244 0.145038C11.5728 0.263182 9.8246 0.671403 8.29916 1.26308C6.71996 1.88166 5.37884 2.69714 4.0502 4.02649C2.72252 5.35489 1.89404 6.6977 1.28828 8.27583C0.696919 9.80209 0.288919 11.5522 0.170839 14.1043C0.0527589 16.6698 0.0258789 17.4862 0.0258789 23.9986C0.0258789 30.5253 0.0517989 31.3408 0.170839 33.8929C0.288919 36.4459 0.696919 38.195 1.28828 39.7213C1.90652 41.3004 2.72156 42.6422 4.0502 43.9716C5.37884 45.3009 6.71996 46.1299 8.2982 46.735C9.82364 47.3267 11.5728 47.7349 14.1235 47.853C16.6876 47.9712 17.5036 47.9981 24.0124 47.9981C30.5356 47.9981 31.3507 47.9721 33.9014 47.853C36.4531 47.7349 38.2012 47.3267 39.7267 46.735C41.3049 46.1164 42.646 45.3009 43.9747 43.9716C45.3033 42.6422 46.1318 41.3004 46.7366 39.7213C47.328 38.195 47.736 36.445 47.854 33.8929C47.9721 31.3273 47.999 30.5109 47.999 23.9986C47.999 17.4862 47.974 16.6573 47.855 14.1052ZM43.5417 33.6969C43.4361 36.0387 43.0416 37.3152 42.7132 38.1576C42.2793 39.2756 41.7532 40.0786 40.9113 40.921C40.0694 41.7634 39.2678 42.2763 38.1494 42.7239C37.3075 43.0524 36.0326 43.4471 33.6912 43.5528C31.1664 43.6709 30.4032 43.6978 23.999 43.6978C17.5948 43.6978 16.8316 43.6719 14.3068 43.5528C11.9664 43.4471 10.6905 43.0524 9.8486 42.7239C8.73116 42.2897 7.9286 41.7634 7.08668 40.921C6.24476 40.0786 5.73212 39.2766 5.28476 38.1576C4.95644 37.3152 4.56188 36.0396 4.45628 33.6969C4.3382 31.1708 4.31132 30.4071 4.31132 23.9995C4.31132 17.5919 4.33724 16.8283 4.45628 14.3021C4.56188 11.9604 4.95644 10.6838 5.28476 9.84147C5.71868 8.72343 6.24476 7.92044 7.08668 7.07806C7.9286 6.23569 8.7302 5.72277 9.8486 5.27517C10.6905 4.94667 11.9654 4.5519 14.3068 4.44624C16.8316 4.3281 17.5948 4.3012 23.999 4.3012C30.4032 4.3012 31.1664 4.32714 33.6912 4.44624C36.0316 4.5519 37.3075 4.94667 38.1494 5.27517C39.2668 5.70932 40.0694 6.23569 40.9113 7.07806C41.7532 7.92044 42.2659 8.72247 42.7132 9.84147C43.0416 10.6838 43.4361 11.9594 43.5417 14.3021C43.6598 16.8283 43.6867 17.5919 43.6867 23.9995C43.6867 30.4081 43.6473 31.1708 43.5417 33.6969Z" fill="url(#paint0_linear_1050_2548)"/>
<path d="M24.0001 11.6713C17.1879 11.6713 11.6775 17.1971 11.6775 24.0005C11.6775 30.8163 17.2004 36.3297 24.0001 36.3297C30.7997 36.3297 36.3226 30.8038 36.3226 24.0005C36.3226 17.1837 30.8122 11.6713 24.0001 11.6713ZM24.0001 31.9997C19.5812 31.9997 16.0042 28.4208 16.0042 23.9995C16.0042 19.5783 19.5812 15.9994 24.0001 15.9994C28.4189 15.9994 31.9959 19.5783 31.9959 23.9995C31.9959 28.4208 28.4189 31.9997 24.0001 31.9997Z" fill="url(#paint1_linear_1050_2548)"/>
<path d="M36.8082 14.0658C38.3988 14.0658 39.6882 12.7757 39.6882 11.1843C39.6882 9.59285 38.3988 8.30273 36.8082 8.30273C35.2176 8.30273 33.9282 9.59285 33.9282 11.1843C33.9282 12.7757 35.2176 14.0658 36.8082 14.0658Z" fill="#BC30A0"/>
<mask id="mask0_1050_2548" style="mask-type:alpha" maskUnits="userSpaceOnUse" x="0" y="0" width="48" height="48">
<path d="M0 23.9995C0 30.5262 0.02592 31.3417 0.14496 33.8938C0.26304 36.4469 0.67104 38.196 1.2624 39.7222C1.88064 41.3013 2.69568 42.6432 4.02432 43.9725C5.35296 45.3019 6.69408 46.1308 8.27232 46.736C9.79776 47.3276 11.5469 47.7359 14.0976 47.854C16.6618 47.9721 17.4778 47.999 23.9866 47.999C30.5098 47.999 31.3248 47.9731 33.8755 47.854C36.4272 47.7359 38.1754 47.3276 39.7008 46.736C41.279 46.1174 42.6202 45.3019 43.9488 43.9725C45.2774 42.6432 46.1059 41.3013 46.7107 39.7222C47.3021 38.196 47.7101 36.4459 47.8282 33.8938C47.9462 31.3283 47.9731 30.5118 47.9731 23.9995C47.9731 17.4728 47.9472 16.6573 47.8282 14.1052C47.7101 11.5522 47.3021 9.80305 46.7107 8.27679C46.0925 6.6977 45.2774 5.35585 43.9488 4.02649C42.6211 2.69714 41.28 1.86821 39.7018 1.26308C38.1763 0.671403 36.4272 0.263182 33.8765 0.145038C31.3114 0.025934 30.4963 0 23.9866 0C17.4634 0 16.6483 0.025934 14.0976 0.145038C11.5459 0.263182 9.79776 0.671403 8.27232 1.26308C6.69408 1.88166 5.35296 2.69714 4.02432 4.02649C2.69568 5.35585 1.8672 6.6977 1.2624 8.27583C0.67104 9.80209 0.26304 11.5522 0.14496 14.1043C0.02592 16.6573 0 17.4738 0 23.9995ZM4.32672 23.9995C4.32672 17.5919 4.35264 16.8283 4.47168 14.3021C4.57728 11.9604 4.97184 10.6838 5.30016 9.84147C5.73408 8.72343 6.26016 7.92044 7.10208 7.07806C7.944 6.23569 8.7456 5.72277 9.864 5.27517C10.7059 4.94667 11.9808 4.5519 14.3222 4.44624C16.847 4.3281 17.6102 4.3012 24.0144 4.3012C30.4186 4.3012 31.1818 4.32714 33.7066 4.44624C36.047 4.5519 37.3229 4.94667 38.1648 5.27517C39.2822 5.70932 40.0848 6.23569 40.9267 7.07806C41.7686 7.92044 42.2813 8.72247 42.7286 9.84147C43.057 10.6838 43.4515 11.9594 43.5571 14.3021C43.6752 16.8283 43.7021 17.5919 43.7021 23.9995C43.7021 30.4071 43.6762 31.1708 43.5571 33.6969C43.4515 36.0387 43.057 37.3152 42.7286 38.1576C42.2947 39.2756 41.7686 40.0786 40.9267 40.921C40.0848 41.7634 39.2832 42.2763 38.1648 42.7239C37.3229 43.0524 36.048 43.4471 33.7066 43.5528C31.1818 43.6709 30.4186 43.6978 24.0144 43.6978C17.6102 43.6978 16.847 43.6719 14.3222 43.5528C11.9818 43.4471 10.7059 43.0524 9.864 42.7239C8.74656 42.2897 7.944 41.7634 7.10208 40.921C6.26016 40.0786 5.74752 39.2766 5.30016 38.1576C4.97184 37.3152 4.57728 36.0396 4.47168 33.6969C4.35264 31.1708 4.32672 30.4081 4.32672 23.9995Z" fill="url(#paint2_linear_1050_2548)"/>
</mask>
<g mask="url(#mask0_1050_2548)">
<path d="M0 23.9995C0 30.5262 0.02592 31.3417 0.14496 33.8938C0.26304 36.4469 0.67104 38.196 1.2624 39.7222C1.88064 41.3013 2.69568 42.6432 4.02432 43.9725C5.35296 45.3019 6.69408 46.1308 8.27232 46.736C9.79776 47.3276 11.5469 47.7359 14.0976 47.854C16.6618 47.9721 17.4778 47.999 23.9866 47.999C30.5098 47.999 31.3248 47.9731 33.8755 47.854C36.4272 47.7359 38.1754 47.3276 39.7008 46.736C41.279 46.1174 42.6202 45.3019 43.9488 43.9725C45.2774 42.6432 46.1059 41.3013 46.7107 39.7222C47.3021 38.196 47.7101 36.4459 47.8282 33.8938C47.9462 31.3283 47.9731 30.5118 47.9731 23.9995C47.9731 17.4728 47.9472 16.6573 47.8282 14.1052C47.7101 11.5522 47.3021 9.80305 46.7107 8.27679C46.0925 6.6977 45.2774 5.35585 43.9488 4.02649C42.6211 2.69714 41.28 1.86821 39.7018 1.26308C38.1763 0.671403 36.4272 0.263182 33.8765 0.145038C31.3114 0.025934 30.4963 0 23.9866 0C17.4634 0 16.6483 0.025934 14.0976 0.145038C11.5459 0.263182 9.79776 0.671403 8.27232 1.26308C6.69408 1.88166 5.35296 2.69714 4.02432 4.02649C2.69568 5.35585 1.8672 6.6977 1.2624 8.27583C0.67104 9.80209 0.26304 11.5522 0.14496 14.1043C0.02592 16.6573 0 17.4738 0 23.9995ZM4.32672 23.9995C4.32672 17.5919 4.35264 16.8283 4.47168 14.3021C4.57728 11.9604 4.97184 10.6838 5.30016 9.84147C5.73408 8.72343 6.26016 7.92044 7.10208 7.07806C7.944 6.23569 8.7456 5.72277 9.864 5.27517C10.7059 4.94667 11.9808 4.5519 14.3222 4.44624C16.847 4.3281 17.6102 4.3012 24.0144 4.3012C30.4186 4.3012 31.1818 4.32714 33.7066 4.44624C36.047 4.5519 37.3229 4.94667 38.1648 5.27517C39.2822 5.70932 40.0848 6.23569 40.9267 7.07806C41.7686 7.92044 42.2813 8.72247 42.7286 9.84147C43.057 10.6838 43.4515 11.9594 43.5571 14.3021C43.6752 16.8283 43.7021 17.5919 43.7021 23.9995C43.7021 30.4071 43.6762 31.1708 43.5571 33.6969C43.4515 36.0387 43.057 37.3152 42.7286 38.1576C42.2947 39.2756 41.7686 40.0786 40.9267 40.921C40.0848 41.7634 39.2832 42.2763 38.1648 42.7239C37.3229 43.0524 36.048 43.4471 33.7066 43.5528C31.1818 43.6709 30.4186 43.6978 24.0144 43.6978C17.6102 43.6978 16.847 43.6719 14.3222 43.5528C11.9818 43.4471 10.7059 43.0524 9.864 42.7239C8.74656 42.2897 7.944 41.7634 7.10208 40.921C6.26016 40.0786 5.74752 39.2766 5.30016 38.1576C4.97184 37.3152 4.57728 36.0396 4.47168 33.6969C4.35264 31.1708 4.32672 30.4081 4.32672 23.9995Z" fill="url(#paint3_linear_1050_2548)"/>
</g>
<defs>
<linearGradient id="paint0_linear_1050_2548" x1="40.5828" y1="3.6755" x2="5.8674" y2="46.2113" gradientUnits="userSpaceOnUse">
<stop stop-color="#AE3DAE"/>
<stop offset="0.0469" stop-color="#B23BA6"/>
<stop offset="0.1216" stop-color="#BD368E"/>
<stop offset="0.2148" stop-color="#CE2E69"/>
<stop offset="0.3216" stop-color="#E62335"/>
<stop offset="0.418" stop-color="#FF1800"/>
</linearGradient>
<linearGradient id="paint1_linear_1050_2548" x1="29.8786" y1="14.1081" x2="17.2675" y2="35.3003" gradientUnits="userSpaceOnUse">
<stop stop-color="#E12F6A"/>
<stop offset="0.1705" stop-color="#EA3751"/>
<stop offset="0.3563" stop-color="#F13D3E"/>
<stop offset="0.5467" stop-color="#F64133"/>
<stop offset="0.7469" stop-color="#F7422F"/>
<stop offset="0.7946" stop-color="#F74C2F"/>
<stop offset="0.8743" stop-color="#F7652F"/>
<stop offset="0.9757" stop-color="#F78F2E"/>
<stop offset="1" stop-color="#F79A2E"/>
</linearGradient>
<linearGradient id="paint2_linear_1050_2548" x1="34.8692" y1="-1.96951" x2="13.6273" y2="48.6667" gradientUnits="userSpaceOnUse">
<stop offset="0.2341"/>
<stop offset="0.4512" stop-color="#808080"/>
<stop offset="0.7524" stop-color="white"/>
<stop offset="0.9624" stop-color="white"/>
</linearGradient>
<linearGradient id="paint3_linear_1050_2548" x1="34.8692" y1="-1.96951" x2="13.6273" y2="48.6667" gradientUnits="userSpaceOnUse">
<stop offset="0.2341" stop-color="#9E35A5"/>
<stop offset="0.4512" stop-color="#D42F7F"/>
<stop offset="0.7524" stop-color="#F7772E"/>
<stop offset="0.9624" stop-color="#FEF780"/>
</linearGradient>
</defs>
</svg>
