<svg width="48" height="48" viewBox="0 0 48 48" fill="none" xmlns="http://www.w3.org/2000/svg">
<rect width="48" height="48" fill="white"/>
<g clip-path="url(#clip0_1050_2452)">
<path d="M47.0003 12.5571C46.7262 11.55 46.1899 10.6318 45.4453 9.89422C44.7006 9.15666 43.7735 8.62558 42.7567 8.35403C39.0109 7.34436 24 7.34436 24 7.34436C24 7.34436 8.98518 7.34436 5.24728 8.33838C4.22819 8.61055 3.29945 9.14375 2.55449 9.88433C1.80953 10.6249 1.27464 11.5467 1.00362 12.5571C-2.63776e-06 16.2631 0 24 0 24C0 24 -2.63776e-06 31.7369 1.00362 35.4429C1.27706 36.4504 1.81303 37.369 2.55783 38.1067C3.30263 38.8443 4.23009 39.3752 5.24728 39.646C8.98913 40.64 24 40.64 24 40.64C24 40.64 39.0148 40.64 42.7567 39.646C43.7735 39.3745 44.7006 38.8434 45.4453 38.1058C46.1899 37.3683 46.7262 36.45 47.0003 35.4429C48 31.7369 48 24 48 24C48 24 47.9881 16.2631 47.0003 12.5571Z" fill="#FF0000"/>
<path d="M19.1992 31.1304L31.6734 24.0001L19.1992 16.8698V31.1304Z" fill="white"/>
</g>
<defs>
<clipPath id="clip0_1050_2452">
<rect width="48" height="33.28" fill="white" transform="translate(0 7.35999)"/>
</clipPath>
</defs>
</svg>
